<svg xmlns="http://www.w3.org/2000/svg" width="434.765" height="142.499" viewBox="140 4972.284 434.765 142.499"><g data-name="Gruppe 328"><g data-name="Gruppe 326" transform="translate(140 4972.315)" clip-path="url(&quot;#a&quot;)"><path d="M110.429.91C91.59 2.865 80.704 8.504 73.607 19.743c-7.098 11.24-8.583 33.792-1.579 47.86 10.2 20.355 47.67 30.647 73.605 17.25 13.84-7.183 21.049-20.805 21.16-38.445.169-30.536-24.114-48.828-56.364-45.496m33.626 61.201c-10.646 22.069-45.85 15.835-54.006-.82-10.76-21.918 1.95-46.035 25.134-47.02 25.044-1.099 40.223 24.32 28.872 47.84Z" fill="#fff" fill-rule="evenodd" data-name="Pfad 170"/><path d="M241.051 8.764C230.182-2.568 198.88 3.07 177.644 1.712c2.192 27.726 1.634 58.318.782 87.048h18.818c0-24.86-1.337-48.382-.817-73.724 17.91-1.136 34.704-.67 31.303 15.705-1.857 9.117-13.729 12.169-25.842 10.177 7.245 16.562 17.52 30.053 23.539 47.842h21.122c-6.613-14.328-16.18-25.643-22.683-40.008 22.183-.965 29.186-27.558 17.185-39.988" fill="#fff" fill-rule="evenodd" data-name="Pfad 171"/><path d="M37.583 42.481c-5.574-4.522-17.408-12.28-16.44-20.47 1.504-12.67 22.052-7.888 32.122-4.726-1.45-4.26-.948-10.531-2.36-14.886C25.823-4.02-4.014 1.581 1.578 27.576c3.567 16.747 37.696 26.052 35.297 41.57C34.647 82.6 9.994 75.864 0 71.51c.614 5.117 1.858 9.695 1.58 15.688 26.473 8.17 62.366 2.438 54.006-25.902-2.288-7.724-11.148-13.288-18.003-18.815" fill="#fff" fill-rule="evenodd" data-name="Pfad 172"/><path d="M322.85 74.656a248.322 248.322 0 0 1-43.864 0V51.898a352.266 352.266 0 0 1 38.383 0V37.793c-12.262-.541-26.64 1.023-37.602-.782V15.032c14.194.465 30.171-.91 43.083.763V1.71h-63.445c1.43 27.634 1.022 59.325 0 87.05h63.445V74.656Z" fill="#fff" fill-rule="evenodd" data-name="Pfad 173"/><path d="m362.272 43.152-28.61-41.44h20.827l18.578 28.58 18.389-28.58h20.714l-28.347 41.811 31.582 45.57H394.41L372.36 55.6l-21.234 33.494H330.58l31.693-45.942Z" fill="#ff9234" fill-rule="evenodd" data-name="Pfad 174"/><path d="M425.437 1.861a9.417 9.417 0 1 1-.176 18.83 9.417 9.417 0 0 1 .176-18.83m0 1.581a7.75 7.75 0 0 0-7.727 7.89 7.729 7.729 0 1 0 15.458 0 7.752 7.752 0 0 0-7.631-7.87l-.1-.001v-.019Zm.443 2.494c1.672 0 3.829.652 3.829 2.977a2.648 2.648 0 0 1-1.858 2.586c.965.355 1.506.968 1.599 2.459a7.925 7.925 0 0 0 .333 2.643h-2.082a11.123 11.123 0 0 1-.353-2.513c0-.818-.223-1.86-2.212-1.86h-1.563v4.391h-2.152V5.955l4.46-.019Zm-2.303 1.507v3.442h1.86c.612 0 2.25 0 2.25-1.86 0-1.861-1.525-1.583-2.158-1.583l-1.952.001Z" fill="#fff" fill-rule="evenodd" data-name="Pfad 175"/><path d="M9.42 141.811 1.075 117.23h6.782l4.645 15.277 4.83-15.278h5.74l4.794 15.315 4.683-15.314h6.762L30.97 141.81h-6.205l-4.533-15.426-4.607 15.426H9.419Z" fill="#fff" fill-rule="evenodd" data-name="Pfad 176"/><path d="M46.557 113.899a3.809 3.809 0 0 1-3.828-3.791v-.004a3.579 3.579 0 0 1 1.115-2.587 3.708 3.708 0 0 1 2.675-1.116c.991-.011 1.94.395 2.62 1.116a3.616 3.616 0 0 1 1.077 2.587 3.723 3.723 0 0 1-1.077 2.679 3.546 3.546 0 0 1-2.582 1.116m-3.491 3.33h6.91v24.582h-6.91v-24.582Z" fill="#fff" fill-rule="evenodd" data-name="Pfad 177"/><path d="M62.905 121.825a9.083 9.083 0 0 1 8.38-5.117v5.825a8.844 8.844 0 0 0-6.112 2.14 7.056 7.056 0 0 0-2.267 5.581v11.725h-6.911v-24.75h6.91v4.596Z" fill="#fff" fill-rule="evenodd" data-name="Pfad 178"/><path d="M86.835 136.248a8.388 8.388 0 0 0 3.049-.614 7.59 7.59 0 0 0 2.582-1.564l4.403 4.504a11.143 11.143 0 0 1-4.422 2.847 15.709 15.709 0 0 1-5.573 1.042 12.658 12.658 0 0 1-9.29-3.722c-4.905-5.126-4.963-13.19-.129-18.385a12.19 12.19 0 0 1 9.01-3.72 10.768 10.768 0 0 1 8.955 4.055 17.325 17.325 0 0 1 3.214 11.035H81.001a6.311 6.311 0 0 0 2.155 3.238 5.68 5.68 0 0 0 3.68 1.284m0-13.417a6.003 6.003 0 0 0-3.475 1.06 5.94 5.94 0 0 0-2.212 2.922h10.944a4.943 4.943 0 0 0-5.314-4l.056.018Z" fill="#fff" fill-rule="evenodd" data-name="Pfad 179"/><path d="M103.368 108.633h6.912v33.179h-6.912v-33.179z" fill="#fff" fill-rule="evenodd" data-name="Rechteck 121"/><path d="M127.854 136.248a8.479 8.479 0 0 0 3.065-.614 7.966 7.966 0 0 0 2.583-1.564l4.402 4.504a11.257 11.257 0 0 1-4.439 2.847 15.662 15.662 0 0 1-5.572 1.042 12.711 12.711 0 0 1-9.29-3.722c-4.912-5.127-4.96-13.198-.112-18.385a12.119 12.119 0 0 1 8.994-3.72 10.727 10.727 0 0 1 8.953 4.055 17.216 17.216 0 0 1 3.234 11.036H122.02a6.313 6.313 0 0 0 2.155 3.237 5.756 5.756 0 0 0 3.679 1.284m0-13.417a5.997 5.997 0 0 0-3.474 1.06 5.79 5.79 0 0 0-2.192 2.922h10.942a4.962 4.962 0 0 0-5.332-4l.056.018Z" fill="#fff" fill-rule="evenodd" data-name="Pfad 180"/><path d="M153.586 142.37a16.95 16.95 0 0 1-11.036-3.72l2.973-4.672a13.896 13.896 0 0 0 8.193 2.753 4.656 4.656 0 0 0 2.34-.613c.526-.245.87-.763.893-1.34a1.657 1.657 0 0 0-.984-1.545 21.43 21.43 0 0 0-3.38-1.117 34.348 34.348 0 0 1-3.55-1.023 15.367 15.367 0 0 1-2.73-1.34 5.372 5.372 0 0 1-2.01-2.084 6.338 6.338 0 0 1-.668-2.996 6.998 6.998 0 0 1 2.6-5.73 10.5 10.5 0 0 1 6.968-2.233 17.04 17.04 0 0 1 9.661 3.033l-2.786 4.93a13.166 13.166 0 0 0-6.875-2.177 4.512 4.512 0 0 0-2.08.41c-.46.154-.778.575-.8 1.06-.019.589.298 1.138.818 1.414 1.117.521 2.288.92 3.49 1.19 1.32.355 2.398.671 3.215.968.947.37 1.86.819 2.733 1.342a5.807 5.807 0 0 1 2.23 2.269 7.602 7.602 0 0 1-1.99 9.062 11.262 11.262 0 0 1-7.225 2.16" fill="#fff" fill-rule="evenodd" data-name="Pfad 181"/><path d="M177.366 142.37a16.94 16.94 0 0 1-11.035-3.722l2.972-4.67a13.9 13.9 0 0 0 8.194 2.753 4.617 4.617 0 0 0 2.284-.52c.524-.245.868-.762.891-1.34a1.657 1.657 0 0 0-.983-1.545 21.463 21.463 0 0 0-3.325-1.21 34.471 34.471 0 0 1-3.587-1.005 15.44 15.44 0 0 1-2.73-1.34 5.372 5.372 0 0 1-2.007-2.084 6.345 6.345 0 0 1-.633-3.014 7 7 0 0 1 2.621-5.73 10.423 10.423 0 0 1 6.948-2.233 17.126 17.126 0 0 1 9.679 3.033l-2.731 4.931a13.152 13.152 0 0 0-6.874-2.176 4.5 4.5 0 0 0-2.08.409c-.462.153-.778.575-.8 1.06-.019.589.299 1.138.818 1.414 1.079.5 2.205.886 3.363 1.154 1.319.353 2.396.67 3.214.968.947.37 1.86.818 2.731 1.34a5.813 5.813 0 0 1 2.227 2.268 7.6 7.6 0 0 1-1.988 9.061 11.258 11.258 0 0 1-7.169 2.199" fill="#fff" fill-rule="evenodd" data-name="Pfad 182"/><path d="M256.563 138.555a12.993 12.993 0 0 1-9.29 3.816 13.145 13.145 0 0 1-9.474-3.816c-4.984-4.58-5.312-12.333-.732-17.317.234-.255.478-.5.732-.733 5.253-5.06 13.566-5.06 18.82 0 4.984 4.625 5.276 12.414.65 17.4-.208.224-.426.44-.65.65h-.056Zm-14.137-4.112a6.404 6.404 0 0 0 4.755 2.103 6.297 6.297 0 0 0 4.739-2.103 7.043 7.043 0 0 0 0-9.844 6.33 6.33 0 0 0-4.739-2.065 6.421 6.421 0 0 0-4.755 2.14 7.042 7.042 0 0 0 0 9.843v-.074Z" fill="#fff" fill-rule="evenodd" data-name="Pfad 183"/><path d="M265.183 108.633h6.93v33.179h-6.93v-33.179z" fill="#fff" fill-rule="evenodd" data-name="Rechteck 122"/><path d="M294.37 117.23h6.911v24.58h-6.91v-3.089a7.439 7.439 0 0 1-3.049 2.699 9.684 9.684 0 0 1-4.345.966 8.7 8.7 0 0 1-6.447-2.661 9.554 9.554 0 0 1-2.546-6.849V117.23h6.67v14.143a5.316 5.316 0 0 0 1.282 3.722 4.31 4.31 0 0 0 3.363 1.433 5.202 5.202 0 0 0 3.715-1.377 4.506 4.506 0 0 0 1.468-3.368v.131l-.111-14.684Z" fill="#fff" fill-rule="evenodd" data-name="Pfad 184"/><path d="m320.103 135.728 1.653 4.523a8.146 8.146 0 0 1-5.572 2.122 7.112 7.112 0 0 1-5.295-2.084 7.454 7.454 0 0 1-2.063-5.415v-12.062h-3.365v-5.581h3.363v-6.7h6.632v6.7h5.313v5.58h-5.313v10.98a2.94 2.94 0 0 0 .67 1.972c.402.501 1.011.788 1.653.782a3.222 3.222 0 0 0 2.324-.817" fill="#fff" fill-rule="evenodd" data-name="Pfad 185"/><path d="M329.52 113.899a3.598 3.598 0 0 1-2.693-1.116 3.723 3.723 0 0 1-1.097-2.68 3.575 3.575 0 0 1 1.116-2.586 3.708 3.708 0 0 1 2.674-1.116c.99-.011 1.941.395 2.62 1.116a3.61 3.61 0 0 1 1.077 2.587 3.726 3.726 0 0 1-1.076 2.679 3.548 3.548 0 0 1-2.62 1.116m-3.491 3.33h6.91v24.582h-6.91v-24.582Z" fill="#fff" fill-rule="evenodd" data-name="Pfad 186"/><path d="M360.413 138.555a12.987 12.987 0 0 1-9.38 3.816 13.136 13.136 0 0 1-9.419-3.816c-4.984-4.58-5.312-12.333-.732-17.317.234-.255.478-.5.732-.733 5.253-5.06 13.567-5.06 18.82 0 4.985 4.629 5.274 12.422.645 17.406-.206.223-.422.438-.645.644h-.021Zm-14.136-4.112a6.408 6.408 0 0 0 4.756 2.103 6.293 6.293 0 0 0 4.737-2.103 7.043 7.043 0 0 0 0-9.844 6.328 6.328 0 0 0-4.737-2.065 6.424 6.424 0 0 0-4.812 2.14 7.042 7.042 0 0 0 0 9.843l.056-.074Z" fill="#fff" fill-rule="evenodd" data-name="Pfad 187"/><path d="M383.154 116.71a8.619 8.619 0 0 1 6.539 2.662 9.466 9.466 0 0 1 2.548 6.827v15.613h-6.67V127.67a5.325 5.325 0 0 0-1.283-3.721 4.306 4.306 0 0 0-3.364-1.433 5.117 5.117 0 0 0-3.715 1.377 4.45 4.45 0 0 0-1.107 1.524 4.514 4.514 0 0 0-.381 1.844v14.533h-6.908V117.23h6.909v3.089a7.441 7.441 0 0 1 3.048-2.68 9.695 9.695 0 0 1 4.384-.93" fill="#fff" fill-rule="evenodd" data-name="Pfad 188"/><path d="M407.268 142.37a16.941 16.941 0 0 1-11.034-3.722l2.972-4.782a13.899 13.899 0 0 0 8.193 2.753 4.618 4.618 0 0 0 2.285-.52c.257-.12.476-.309.633-.545.157-.237.247-.512.26-.796a1.668 1.668 0 0 0-.986-1.545 21.594 21.594 0 0 0-3.324-1.098 34.133 34.133 0 0 1-3.548-1.022 15.398 15.398 0 0 1-2.734-1.34 5.396 5.396 0 0 1-2.005-2.084 6.335 6.335 0 0 1-.668-3.015 6.983 6.983 0 0 1 2.62-5.732 10.425 10.425 0 0 1 6.947-2.233 17.124 17.124 0 0 1 9.677 3.032l-2.802 4.95a13.16 13.16 0 0 0-6.873-2.177 4.53 4.53 0 0 0-2.082.41c-.46.154-.778.576-.8 1.06a1.55 1.55 0 0 0 .817 1.416c1.12.52 2.29.92 3.495 1.19 1.316.354 2.395.67 3.214.968.945.37 1.859.819 2.73 1.34a5.79 5.79 0 0 1 2.228 2.27 7.594 7.594 0 0 1-1.986 9.062 11.263 11.263 0 0 1-7.23 2.16" fill="#fff" fill-rule="evenodd" data-name="Pfad 189"/><path d="M220.967 142.39a16.942 16.942 0 0 1-11.033-3.721l2.972-4.783a13.899 13.899 0 0 0 8.192 2.754 4.618 4.618 0 0 0 2.286-.521c.257-.12.475-.308.633-.545.157-.237.246-.511.26-.796a1.668 1.668 0 0 0-.986-1.545 21.591 21.591 0 0 0-3.325-1.097 34.136 34.136 0 0 1-3.548-1.023 15.396 15.396 0 0 1-2.734-1.34 5.396 5.396 0 0 1-2.004-2.084 6.335 6.335 0 0 1-.669-3.015 6.983 6.983 0 0 1 2.62-5.732 10.425 10.425 0 0 1 6.947-2.232 17.124 17.124 0 0 1 9.678 3.032l-2.802 4.95a13.16 13.16 0 0 0-6.873-2.177 4.53 4.53 0 0 0-2.082.409c-.46.155-.779.577-.8 1.061-.02.589.297 1.137.816 1.416 1.12.52 2.29.919 3.495 1.19 1.317.353 2.395.67 3.214.968.945.37 1.86.818 2.73 1.34a5.79 5.79 0 0 1 2.228 2.27 7.594 7.594 0 0 1-1.986 9.062 11.263 11.263 0 0 1-7.229 2.159" fill="#fff" fill-rule="evenodd" data-name="Pfad 190"/></g></g><defs><clipPath id="a"><path d="M0 0h434.877v142.37H0V0z" data-name="Rechteck 123"/></clipPath></defs></svg>