<svg id="Group_118" data-name="Group 118" xmlns="http://www.w3.org/2000/svg" xmlns:xlink="http://www.w3.org/1999/xlink" width="238.925" height="241.909" viewBox="0 0 238.925 241.909">
  <defs>
    <clipPath id="clip-path">
      <rect id="Rectangle_75" data-name="Rectangle 75" width="238.925" height="241.909" fill="none"/>
    </clipPath>
  </defs>
  <g id="Group_117" data-name="Group 117">
    <g id="Group_116" data-name="Group 116" clip-path="url(#clip-path)">
      <g id="Path_133" data-name="Path 133" transform="translate(3)" fill="#3f7180" fill-rule="evenodd">
        <path d="M 116.938835144043 237.409423828125 C 115.4794006347656 237.409423828125 113.9986801147461 236.9364929199219 112.4120559692383 235.963623046875 C 110.9771575927734 235.0837860107422 109.419075012207 233.7850952148438 107.5097198486328 231.8775024414062 C 105.4599685668945 229.9204559326172 103.8344879150391 228.3524169921875 102.6473083496094 227.2071838378906 C 101.7743377685547 226.3650817871094 101.1435852050781 225.7566223144531 100.7203979492188 225.3559875488281 L 100.7136840820312 225.3496246337891 L 100.7070541381836 225.3431243896484 C 98.66752624511719 223.3392181396484 95.86280822753906 222.1428375244141 93.20446014404297 222.1428375244141 C 92.0406494140625 222.1428375244141 90.93677520751953 222.3689270019531 89.92352294921875 222.8148040771484 C 86.32905578613281 224.3826446533203 83.02152252197266 225.8608703613281 80.35552215576172 227.0908966064453 L 80.34805297851562 227.0943756103516 L 80.34052276611328 227.0976867675781 C 77.85589599609375 228.1947784423828 75.77880859375 228.7281494140625 73.99055480957031 228.7283020019531 C 71.73305511474609 228.7285003662109 69.85374450683594 227.8820190429688 68.24530792236328 226.1404876708984 C 66.912353515625 224.6972808837891 65.70925140380859 222.6014556884766 64.34477233886719 219.3458099365234 C 62.39507293701172 214.7955017089844 61.18564224243164 211.9557800292969 60.64778137207031 210.6651306152344 C 59.26983642578125 207.4251556396484 55.97568511962891 204.1578674316406 51.71877288818359 204.1578674316406 C 51.68988418579102 204.1578674316406 51.66094589233398 204.1580200195312 51.63197708129883 204.1583557128906 C 48.47305679321289 204.2522583007812 45.94950485229492 204.3096008300781 44.10643005371094 204.3514862060547 C 42.78052520751953 204.3816223144531 41.82255554199219 204.4033660888672 41.20539855957031 204.4253082275391 L 41.1963996887207 204.4256134033203 L 41.1873664855957 204.42578125 C 41.00586700439453 204.428955078125 40.82415008544922 204.4305572509766 40.64727401733398 204.4305572509766 C 38.34658813476562 204.4306793212891 36.50224304199219 204.1622772216797 35.0088996887207 203.6099548339844 C 33.47317886352539 203.0419921875 32.30211639404297 202.1770935058594 31.42874336242676 200.9658050537109 C 29.64458656311035 198.4912719726562 29.3773365020752 194.7702484130859 29.35430526733398 191.1177673339844 L 29.35427474975586 191.1146240234375 L 29.35427474975586 191.1114654541016 C 29.35427474975586 187.9001159667969 29.33115005493164 185.4148406982422 29.31583595275879 183.7702789306641 C 29.30755615234375 182.8790588378906 29.30099296569824 182.1751556396484 29.30099296569824 181.6872100830078 C 29.30099296569824 177.4822692871094 26.91824722290039 173.5721130371094 23.50562477111816 172.1748199462891 L 22.60508728027344 171.8277130126953 C 17.91607093811035 170.0203704833984 15.08061122894287 168.9274749755859 13.7568359375 168.3699493408203 C 9.81571102142334 166.8217620849609 7.512263298034668 165.0078125 6.508805751800537 162.6621856689453 C 5.216468334197998 159.6413116455078 6.17484712600708 156.0308685302734 8.011934280395508 151.5402984619141 C 8.919554710388184 149.2714996337891 9.671541213989258 147.4371948242188 10.27571201324463 145.9633636474609 C 10.870680809021 144.5121154785156 11.30052471160889 143.4635314941406 11.53696155548096 142.8318939208984 L 11.54368019104004 142.8138732910156 L 11.55111789703369 142.7961120605469 C 13.17989921569824 138.9072113037109 12.47739887237549 134.3831481933594 9.842742919921875 131.7944641113281 C 8.849170684814453 130.8295135498047 7.976883888244629 129.9817504882812 7.210117816925049 129.2365875244141 C 5.002774238586426 127.0913391113281 3.670399188995361 125.7964630126953 2.839211702346802 125.0046844482422 L 2.832461833953857 124.9982147216797 L 2.825805425643921 124.9916458129883 C 1.541930556297302 123.7219619750977 0.6204930543899536 122.5997772216797 0.008836791850626469 121.5609283447266 C -0.6760382056236267 120.3976821899414 -1.005913257598877 119.292366027832 -0.999631941318512 118.1818084716797 C -0.9875775575637817 116.0538635253906 0.2213094979524612 113.9813079833984 3.042340040206909 111.2527084350586 C 4.097492694854736 110.1977157592773 5.913851261138916 108.4288177490234 9.84229850769043 104.6135559082031 C 12.90964221954346 101.5404891967773 12.91243362426758 96.87886047363281 11.55351066589355 93.6171875 C 11.14245510101318 92.67173767089844 10.38123893737793 90.78707885742188 9.230430603027344 87.93783569335938 C 8.862898826599121 87.02783966064453 8.457118034362793 86.02314758300781 8.01302433013916 84.92605590820312 C 6.178055763244629 80.44396209716797 5.218368053436279 76.83577728271484 6.503930568695068 73.80686950683594 C 7.504805564880371 71.44871520996094 9.811649322509766 69.61640167236328 13.76371192932129 68.04045867919922 L 13.76933670043945 68.03824615478516 L 13.77496147155762 68.03605651855469 C 14.52052402496338 67.74915313720703 15.82411766052246 67.23933410644531 17.62836837768555 66.53374481201172 C 19.20023727416992 65.91902923583984 21.15603828430176 65.15418243408203 23.50522041320801 64.23847198486328 C 26.9180850982666 62.84220886230469 29.30099296569824 58.93188095092773 29.30099296569824 54.72589874267578 C 29.30099296569824 54.26239776611328 29.30739974975586 53.57342910766602 29.31552505493164 52.70114898681641 C 29.33096122741699 51.04230499267578 29.35427474975586 48.53543090820312 29.35427474975586 45.30165100097656 L 29.35427474975586 45.29849243164062 L 29.35430526733398 45.29533767700195 C 29.3771800994873 41.66349411010742 29.64077377319336 37.96242904663086 31.39936828613281 35.49405670166016 C 33.08243179321289 33.13171005249023 35.96968078613281 32.03142929077148 40.48571014404297 32.03142929077148 C 40.7116813659668 32.03142929077148 40.94561767578125 32.03414916992188 41.18115234375 32.03955841064453 C 42.05841827392578 32.03986740112305 43.62075424194336 32.07608413696289 45.77958679199219 32.12614822387695 C 47.36602401733398 32.16292953491211 49.34043121337891 32.20871353149414 51.63117980957031 32.25386810302734 C 51.69865036010742 32.2554931640625 51.76205444335938 32.25627517700195 51.82477569580078 32.25627517700195 C 56.03596115112305 32.25627517700195 59.29071044921875 28.98652458190918 60.64821243286133 25.74605560302734 L 60.6508674621582 25.73974227905273 L 60.65358734130859 25.73349380493164 C 60.8922119140625 25.18499374389648 61.26961898803711 24.29458618164062 61.79196166992188 23.06224250793457 C 62.42118072509766 21.57771110534668 63.28293228149414 19.54458618164062 64.34571075439453 17.06424331665039 C 65.71144104003906 13.82657527923584 66.91268920898438 11.74129676818848 68.24030303955078 10.30346202850342 C 69.84977722167969 8.560305595397949 71.72599029541016 7.71296215057373 73.97611999511719 7.71296215057373 C 75.77001953125 7.71296215057373 77.85032653808594 8.253862380981445 80.33552551269531 9.366483688354492 C 81.14771270751953 9.710330963134766 82.57803344726562 10.34463596343994 84.55484008789062 11.22127437591553 C 86.00792694091797 11.86564922332764 87.81636810302734 12.66761779785156 89.92377471923828 13.59568023681641 C 90.95371246337891 14.04889965057373 92.07843017578125 14.27874279022217 93.26646423339844 14.27874279022217 C 95.94789886474609 14.27874279022217 98.72708892822266 13.10043048858643 100.7008056640625 11.12674331665039 C 101.9235687255859 9.903946876525879 104.4059219360352 7.499691963195801 107.512092590332 4.529664993286133 C 111.5009078979492 0.6019579172134399 114.2321166992188 -1.000006794929504 116.938835144043 -1.000006794929504 L 116.9489898681641 -1.000006794929504 L 116.9591522216797 -0.9997881054878235 C 119.7384948730469 -0.9433186054229736 122.4722290039062 0.651310920715332 126.3888397216797 4.502827167510986 L 126.4112396240234 4.524149417877197 C 130.7957458496094 8.710234642028809 132.7289581298828 10.62746906280518 133.2236785888672 11.12210941314697 C 135.2362518310547 13.09876918792725 138.0206756591797 14.27871227264404 140.6726531982422 14.27874279022217 C 140.6727142333984 14.27874279022217 140.6728210449219 14.27874279022217 140.6728973388672 14.27874279022217 C 141.8541564941406 14.27874279022217 142.9754333496094 14.048903465271 144.0055847167969 13.59555530548096 C 146.714111328125 12.41414928436279 148.9117431640625 11.43561840057373 150.5164031982422 10.72114944458008 C 151.9233551025391 10.09467601776123 152.9419097900391 9.641134262084961 153.5946350097656 9.366025924682617 C 156.0935363769531 8.247636795043945 158.1813812255859 7.703930854797363 159.9770202636719 7.703930854797363 C 162.2229309082031 7.703930854797363 164.0940551757812 8.549617767333984 165.6973724365234 10.28936862945557 C 167.0250244140625 11.73003959655762 168.223876953125 13.82024383544922 169.5844573974609 17.06671524047852 C 170.1846771240234 18.46548652648926 170.7207183837891 19.70442008972168 171.1936492919922 20.79752349853516 C 172.2474365234375 23.23317337036133 172.9464721679688 24.84884834289551 173.28759765625 25.76180839538574 C 174.6695251464844 28.99784278869629 177.9285583496094 32.25621032714844 182.1075592041016 32.25621032714844 C 182.1694641113281 32.25621032714844 182.2312774658203 32.25546264648438 182.29345703125 32.25396347045898 C 184.5484619140625 32.2091178894043 186.4980621337891 32.16399383544922 188.0645599365234 32.12771224975586 C 190.2659301757812 32.07674026489258 191.8590240478516 32.03986740112305 192.7480010986328 32.03955841064453 C 192.9835510253906 32.03414916992188 193.2174987792969 32.03142929077148 193.4434967041016 32.03142929077148 C 195.7094573974609 32.03142929077148 197.5270843505859 32.30008697509766 199.000244140625 32.85271072387695 C 200.5144653320312 33.42074203491211 201.6692810058594 34.28471374511719 202.5306549072266 35.49393081665039 C 204.2884368896484 37.96158599853516 204.5519256591797 41.66302490234375 204.5747985839844 45.29533767700195 L 204.5748443603516 45.29849243164062 L 204.5748443603516 45.30165100097656 C 204.5748443603516 48.51299285888672 204.5979614257812 50.99827575683594 204.61328125 52.64283752441406 C 204.6215515136719 53.53405380249023 204.6281127929688 54.23796081542969 204.6281127929688 54.72589874267578 C 204.6281127929688 58.94968795776367 207.0099334716797 62.85967254638672 210.4207305908203 64.23721313476562 C 213.0110015869141 65.24619293212891 215.0934906005859 66.06056213378906 216.7671508789062 66.71505737304688 C 218.3397369384766 67.33005523681641 219.4759674072266 67.77436828613281 220.1549987792969 68.03636932373047 L 220.1576538085938 68.03739929199219 L 220.1602783203125 68.03842926025391 C 224.1036834716797 69.58564758300781 226.4090881347656 71.39865112304688 227.4154968261719 73.74405670166016 C 228.7141418457031 76.77049255371094 227.7550811767578 80.40358734130859 225.9154968261719 84.92752075195312 C 225.0900268554688 86.96683502197266 224.3840484619141 88.679931640625 223.8168334960938 90.05642700195312 C 223.1392669677734 91.70068359375 222.6497192382812 92.88864898681641 222.3919982910156 93.57617950439453 L 222.3853302001953 93.59396362304688 L 222.3779907226562 93.61149597167969 C 220.7547607421875 97.48715972900391 221.4341735839844 102.0091247558594 224.0295867919922 104.6123275756836 C 227.8603973388672 108.2864303588867 229.7204284667969 110.0883483886719 230.884521484375 111.2531356811523 C 233.705322265625 113.9831085205078 234.9137268066406 116.0560455322266 234.9253387451172 118.1841201782227 C 234.931396484375 119.2944030761719 234.6015167236328 120.3993988037109 233.9168395996094 121.5622100830078 C 233.3052368164062 122.6008377075195 232.3840179443359 123.7226486206055 231.1005249023438 124.9917144775391 L 231.09375 124.9983978271484 L 231.0868682861328 125.0049591064453 C 230.5869293212891 125.4808044433594 229.9020843505859 126.1415863037109 228.9542083740234 127.05615234375 C 227.7870635986328 128.1822814941406 226.1890716552734 129.7241058349609 224.02880859375 131.7960052490234 C 220.986328125 134.8464813232422 221.0054779052734 139.5133972167969 222.3755340576172 142.7902221679688 C 222.9144592285156 144.0298004150391 224.0929107666016 146.9773559570312 225.875 151.4347991943359 L 225.9148712158203 151.5345764160156 C 227.7497406005859 155.9870147705078 228.7093811035156 159.5717620849609 227.4304962158203 162.5960540771484 C 226.4326934814453 164.9556579589844 224.1271057128906 166.7901458740234 220.1750793457031 168.3688049316406 C 219.4285888671875 168.6842346191406 218.1590270996094 169.1734619140625 216.4047088623047 169.8494567871094 C 214.8036346435547 170.4664459228516 212.8111724853516 171.2342224121094 210.4253997802734 172.1740264892578 C 207.0119781494141 173.5492706298828 204.6281127929688 177.4609222412109 204.6281127929688 181.6872100830078 C 204.6281127929688 182.1507110595703 204.6217193603516 182.8396759033203 204.6135864257812 183.7119598388672 C 204.59814453125 185.3708038330078 204.5748443603516 187.877685546875 204.5748443603516 191.1114654541016 L 204.5748443603516 191.1146240234375 L 204.5747985839844 191.1177673339844 C 204.5518035888672 194.7709350585938 204.2845001220703 198.4925842285156 202.4998931884766 200.9671783447266 C 201.6266479492188 202.1780548095703 200.4557800292969 203.0426483154297 198.9203643798828 203.6103973388672 C 197.4276733398438 204.1623077392578 195.5841217041016 204.4306182861328 193.2843017578125 204.4306182861328 C 193.1068420410156 204.4306182861328 192.9239654541016 204.4289855957031 192.7407379150391 204.42578125 L 192.7317810058594 204.4256134033203 L 192.7227783203125 204.4253082275391 C 192.1000823974609 204.4031524658203 191.1288299560547 204.3809967041016 189.7845611572266 204.350341796875 C 187.9483032226562 204.3084411621094 185.4339294433594 204.2510681152344 182.2966766357422 204.1583709716797 C 182.2670135498047 204.1580352783203 182.2373046875 204.1578674316406 182.2077178955078 204.1578674316406 C 177.9239654541016 204.1578674316406 174.6371154785156 207.4266510009766 173.2799987792969 210.6661834716797 L 173.27734375 210.6724548339844 L 173.2746124267578 210.6787414550781 C 173.0359039306641 211.2274017333984 172.6583099365234 212.1183013916016 172.1356506347656 213.3513336181641 C 171.5065612792969 214.8356170654297 170.6449584960938 216.8683624267578 169.5824890136719 219.3479919433594 C 168.212890625 222.5948638916016 167.0073852539062 224.6855010986328 165.6742095947266 226.1260223388672 C 164.0596160888672 227.8706512451172 162.1752777099609 228.7188110351562 159.9135284423828 228.718994140625 C 158.1279602050781 228.7191162109375 156.0587768554688 228.1888122558594 153.5876770019531 227.0976867675781 L 153.5798950195312 227.09423828125 L 153.5721740722656 227.0906829833984 C 152.9360198974609 226.7967376708984 150.3658752441406 225.6196746826172 144.0039672851562 222.8144989013672 C 142.9916839599609 222.3690185546875 141.8847503662109 222.1430206298828 140.7146453857422 222.1430206298828 C 138.0269012451172 222.1430206298828 135.2279052734375 223.3370208740234 133.2273101806641 225.3370208740234 L 133.2178344726562 225.3464660644531 L 133.2081451416016 225.3556823730469 C 132.8852996826172 225.66162109375 132.4328308105469 226.1019897460938 131.8600006103516 226.6595611572266 C 130.6590728759766 227.8284149169922 128.8450775146484 229.5940246582031 126.4136505126953 231.8821868896484 C 124.4831848144531 233.7828674316406 122.9255294799805 235.0731964111328 121.5120544433594 235.9425811767578 C 119.9072723388672 236.9296112060547 118.4113693237305 237.409423828125 116.938835144043 237.409423828125 Z" stroke="none"/>
        <path d="M 116.938835144043 0 C 114.3656463623047 0 111.7419281005859 1.7672119140625 108.2084274291992 5.2474365234375 C 104.6243743896484 8.674331665039062 102.4252166748047 10.8165283203125 101.4078979492188 11.83383178710938 C 98.40919494628906 14.83247375488281 93.53672790527344 16.27806091308594 89.52073669433594 14.5108642578125 C 84.54165649414062 12.31814575195312 81.32887268066406 10.87255859375 79.93658447265625 10.28349304199219 C 71.69052124023438 6.5882568359375 68.58427429199219 9.586883544921875 65.264892578125 17.45805358886719 C 63.3377685546875 21.95561218261719 62.10633850097656 24.90095520019531 61.570556640625 26.13240051269531 C 59.91087341308594 30.09417724609375 56.055419921875 33.36091613769531 51.61146545410156 33.25367736816406 C 46.20321655273438 33.14707946777344 42.66874694824219 33.03955078125 41.16990661621094 33.03955078125 C 31.9600830078125 32.82566833496094 30.4075927734375 36.84140014648438 30.35427856445312 45.30162048339844 C 30.35427856445312 50.22833251953125 30.30096435546875 53.38693237304688 30.30096435546875 54.72590637207031 C 30.30096435546875 59.01020812988281 27.94468688964844 63.50778198242188 23.87539672851562 65.16746520996094 C 18.79246520996094 67.1488037109375 15.5263671875 68.43356323242188 14.13409423828125 68.96932983398438 C 5.673873901367188 72.34295654296875 5.673873901367188 76.57305908203125 8.939956665039062 84.55081176757812 C 10.760498046875 89.04837036132812 11.93771362304688 91.99371337890625 12.47346496582031 93.22517395019531 C 14.127685546875 97.1878662109375 13.70307922363281 102.1669311523438 10.54362487792969 105.3264312744141 C 6.683837890625 109.0749969482422 4.813674926757812 110.8955230712891 3.743057250976562 111.9661483764648 C -1.129440307617188 116.6769027709961 -1.290252685546875 119.5147399902344 3.5289306640625 124.2806167602539 C 4.653778076171875 125.3521499633789 6.683837890625 127.3325881958008 10.54362487792969 131.0811462402344 C 13.70492553710938 134.1873474121094 14.1331787109375 139.2197418212891 12.47346496582031 143.1824340820312 C 11.99192810058594 144.468994140625 10.760498046875 147.3619995117188 8.939956665039062 151.912841796875 C 5.673873901367188 159.8942718505859 5.673873901367188 164.1243591308594 14.13409423828125 167.4437713623047 C 15.52267456054688 168.0291748046875 18.73548889160156 169.2643127441406 23.87539672851562 171.2456512451172 C 27.94468688964844 172.90625 30.30096435546875 177.40380859375 30.30096435546875 181.6872100830078 C 30.30096435546875 183.0794982910156 30.35427856445312 186.1856842041016 30.35427856445312 191.1114349365234 C 30.4075927734375 199.5661773681641 31.959716796875 203.5867614746094 41.16990661621094 203.4259338378906 C 42.669677734375 203.3726196289062 46.20321655273438 203.3193359375 51.61146545410156 203.1584930419922 C 56.05624389648438 203.1055297851562 59.91085815429688 206.3713073730469 61.570556640625 210.2797698974609 C 62.10633850097656 211.5654296875 63.3377685546875 214.4565582275391 65.264892578125 218.9541168212891 C 68.58522033691406 226.8786010742188 71.69049072265625 229.8239135742188 79.93658447265625 226.1828918457031 C 81.32887268066406 225.54052734375 84.4874267578125 224.0949554443359 89.52073669433594 221.8994903564453 C 93.53672790527344 220.1322631835938 98.35592651367188 221.6311187744141 101.4078979492188 224.6298065185547 C 102.4252166748047 225.5928955078125 104.6748962402344 227.7883605957031 108.2084274291992 231.1619873046875 C 111.7447128295898 234.6964263916016 114.3656463623047 236.409423828125 116.938835144043 236.409423828125 C 119.5625534057617 236.409423828125 122.1862716674805 234.6422119140625 125.7197723388672 231.1619873046875 C 129.3038330078125 227.789306640625 131.5029907226562 225.5938415527344 132.5202941894531 224.6298065185547 C 135.5189514160156 221.6320648193359 140.3914489746094 220.1322631835938 144.4074401855469 221.8994903564453 C 149.3865356445312 224.0949554443359 152.5993347167969 225.5396118164062 153.9916076660156 226.1828918457031 C 162.2377014160156 229.8239288330078 165.3439025878906 226.8252716064453 168.6632995605469 218.9541168212891 C 170.5904235839844 214.4565582275391 171.8218688964844 211.5112152099609 172.3576202392578 210.2797698974609 C 174.017333984375 206.3179931640625 177.8720703125 203.1051330566406 182.3167419433594 203.1584930419922 C 187.7249908447266 203.3183898925781 191.2594299316406 203.3726196289062 192.75830078125 203.4259338378906 C 201.9684295654297 203.5877380371094 203.5215148925781 199.5716857910156 203.5748291015625 191.1114349365234 C 203.5748291015625 186.1847381591797 203.6281127929688 183.0261840820312 203.6281127929688 181.6872100830078 C 203.6281127929688 177.4028625488281 205.9311218261719 172.9053344726562 210.0537109375 171.2456512451172 C 215.0833435058594 169.2643127441406 218.4027404785156 168.0328369140625 219.7950286865234 167.4437713623047 C 228.2552490234375 164.0673980712891 228.2552490234375 159.8373107910156 224.9891510009766 151.912841796875 C 223.1686248779297 147.3592529296875 221.9913940429688 144.4138793945312 221.4556121826172 143.1824340820312 C 219.7959289550781 139.2197418212891 220.1699676513672 134.2406463623047 223.3294677734375 131.0811462402344 C 227.2378997802734 127.3325881958008 229.2725524902344 125.3512420654297 230.3973999023438 124.2806167602539 C 235.2165832519531 119.5156478881836 235.0539245605469 116.6778030395508 230.1832733154297 111.9661483764648 C 229.0584259033203 110.8404006958008 227.2378997802734 109.0749969482422 223.3294677734375 105.3264312744141 C 220.2241821289062 102.2202453613281 219.7959289550781 97.1878662109375 221.4556121826172 93.22517395019531 C 221.9371795654297 91.9404296875 223.1686248779297 89.04837036132812 224.9891510009766 84.55081176757812 C 228.2552490234375 76.51882934570312 228.2552490234375 72.28871154785156 219.7950286865234 68.96932983398438 C 218.4064025878906 68.43356323242188 215.1403045654297 67.1488037109375 210.0537109375 65.16746520996094 C 205.93017578125 63.5068359375 203.6281127929688 59.00930786132812 203.6281127929688 54.72590637207031 C 203.6281127929688 53.3336181640625 203.5748291015625 50.22743225097656 203.5748291015625 45.30162048339844 C 203.5215301513672 36.84140014648438 201.9694671630859 32.82565307617188 192.7592468261719 33.03955078125 C 191.2594299316406 33.03955078125 187.7259216308594 33.14614868164062 182.3176574707031 33.25367736816406 C 177.8722839355469 33.36180114746094 174.0182495117188 30.04087829589844 172.3585510253906 26.13240051269531 C 171.8806762695312 24.84768676757812 170.5940856933594 21.95561218261719 168.6642150878906 17.45805358886719 C 165.3439025878906 9.533615112304688 162.2386169433594 6.589157104492188 153.9925231933594 10.28349304199219 C 152.6002502441406 10.86984252929688 149.4416809082031 12.31539916992188 144.4083709716797 14.5108642578125 C 140.3923645019531 16.27813720703125 135.5731811523438 14.83251953125 132.5212097167969 11.83383178710938 C 131.50390625 10.8165283203125 129.2542114257812 8.621063232421875 125.7206802368164 5.2474365234375 L 125.7197723388672 5.2474365234375 C 122.1862716674805 1.7672119140625 119.5625534057617 0.0532989501953125 116.938835144043 0 M 116.938835144043 -2 L 116.9794616699219 -1.999603271484375 C 120.0391235351562 -1.937423706054688 122.9692001342773 -0.2610321044921875 127.0834350585938 3.78338623046875 L 127.1017761230469 3.800872802734375 C 131.489990234375 7.990478515625 133.4305725097656 9.914901733398438 133.929443359375 10.41363525390625 C 135.7589263916016 12.20773315429688 138.2791442871094 13.27874755859375 140.6726379394531 13.27874755859375 C 141.7145233154297 13.27874755859375 142.7004089355469 13.077392578125 143.6028137207031 12.68026733398438 L 143.6087341308594 12.67767333984375 C 146.3115234375 11.49874877929688 148.5074920654297 10.52096557617188 150.1109008789062 9.807022094726562 C 151.5156860351562 9.1815185546875 152.5345306396484 8.727874755859375 153.1965484619141 8.448593139648438 C 155.8220367431641 7.274658203125 158.0401306152344 6.703933715820312 159.9769897460938 6.703903198242188 C 162.5178070068359 6.703842163085938 164.6295166015625 7.65496826171875 166.4327087402344 9.611648559570312 C 167.8423004150391 11.14122009277344 169.0987243652344 13.32093811035156 170.5058441162109 16.67800903320312 C 171.10498046875 18.07427978515625 171.6402893066406 19.31147766113281 172.1126098632812 20.40321350097656 C 173.1631774902344 22.8314208984375 173.8629913330078 24.44888305664062 174.2158813476562 25.38908386230469 C 175.4342041015625 28.222412109375 178.4138488769531 31.25621032714844 182.1075592041016 31.25621032714844 C 182.1615295410156 31.25621032714844 182.2154235839844 31.25555419921875 182.2696533203125 31.25424194335938 L 182.2778930664062 31.25408935546875 C 184.5269622802734 31.20936584472656 186.4756164550781 31.16424560546875 188.0413970947266 31.12799072265625 C 190.2394256591797 31.07710266113281 191.8329620361328 31.04020690917969 192.7356414794922 31.03956604003906 C 192.9754028320312 31.03416442871094 193.2134246826172 31.03143310546875 193.4435272216797 31.03143310546875 C 198.3120574951172 31.03131103515625 201.4584045410156 32.26492309570312 203.3451538085938 34.91368103027344 C 205.2642059326172 37.60774230957031 205.5508728027344 41.49240112304688 205.5747985839844 45.28903198242188 L 205.5748291015625 45.30162048339844 C 205.5748291015625 48.50833129882812 205.5970306396484 50.89262390136719 205.6132507324219 52.63356018066406 C 205.6215515136719 53.52734375 205.6281127929688 54.23330688476562 205.6281127929688 54.72590637207031 C 205.6281127929688 58.55068969726562 207.7506561279297 62.0780029296875 210.7909240722656 63.30824279785156 C 213.376953125 64.31556701660156 215.4569702148438 65.12898254394531 217.1287384033203 65.78274536132812 C 218.7014007568359 66.39773559570312 219.837646484375 66.84208679199219 220.5149688720703 67.1033935546875 L 220.5255279541016 67.10752868652344 C 224.7342681884766 68.75883483886719 227.2156219482422 70.7423095703125 228.3344573974609 73.34968566894531 C 229.7698669433594 76.69480895996094 228.7758941650391 80.54792785644531 226.8418426513672 85.30418395996094 C 226.0158081054688 87.34486389160156 225.3091735839844 89.05958557128906 224.7414245605469 90.43736267089844 C 224.0673980712891 92.07296752929688 223.5804290771484 93.25474548339844 223.328369140625 93.92715454101562 L 223.3003692626953 93.997802734375 C 221.831298828125 97.50535583496094 222.4195098876953 101.5729217529297 224.7295684814453 103.8980712890625 C 228.5560150146484 107.5680847167969 230.4185028076172 109.3723831176758 231.5866546630859 110.5410842895508 C 233.7249298095703 112.611213684082 235.9086761474609 115.1368789672852 235.9253082275391 118.1786193847656 C 235.9324035644531 119.4743041992188 235.5572814941406 120.7470550537109 234.7785186767578 122.0696182250977 C 234.1224975585938 123.183708190918 233.1493988037109 124.3721466064453 231.8035888671875 125.7028045654297 L 231.7762756347656 125.7293090820312 C 231.2786560058594 126.2029342651367 230.5945587158203 126.8630218505859 229.6476745605469 127.7765884399414 C 228.4818572998047 128.9014587402344 226.8862609863281 130.4409790039062 224.7300567626953 132.509033203125 C 222.0225067138672 135.2305603027344 222.0576934814453 139.4327545166016 223.2958984375 142.3991088867188 C 223.8422546386719 143.6566772460938 225.0216827392578 146.6067504882812 226.8035278320312 151.0635833740234 L 226.8429412841797 151.162109375 C 228.7709503173828 155.8422546386719 229.7644958496094 159.6442108154297 228.3515625 162.9855346679688 C 227.2437591552734 165.6051635742188 224.7665710449219 167.6098480224609 220.5564727783203 169.2932586669922 C 219.7942810058594 169.614990234375 218.5211944580078 170.1055755615234 216.7645263671875 170.7825012207031 C 215.1653137207031 171.3987426757812 213.1753997802734 172.16552734375 210.7937164306641 173.1037139892578 C 207.7518005371094 174.332275390625 205.6281127929688 177.8606109619141 205.6281127929688 181.6872100830078 C 205.6281127929688 182.1553344726562 205.6216735839844 182.8464050292969 205.6135559082031 183.7212829589844 C 205.5981140136719 185.3782348632812 205.5748291015625 187.8823089599609 205.5748291015625 191.1114349365234 L 205.5747985839844 191.1240234375 C 205.5507507324219 194.9431457519531 205.2598419189453 198.8497772216797 203.3109893798828 201.5520935058594 C 201.4027099609375 204.1981811523438 198.2166748046875 205.4306182861328 193.2843017578125 205.4306182861328 C 193.1009979248047 205.4306182861328 192.9122161865234 205.4289245605469 192.7232360839844 205.4256134033203 L 192.6872100830078 205.4246826171875 C 192.0707397460938 205.4027404785156 191.1018371582031 205.3806457519531 189.7608642578125 205.3500213623047 C 187.925048828125 205.3081665039062 185.4119567871094 205.2508087158203 182.27587890625 205.1581573486328 C 178.4186401367188 205.1211547851562 175.4387817382812 208.10107421875 174.2022705078125 211.0525512695312 L 174.1915893554688 211.0776519775391 C 173.9548950195312 211.6216125488281 173.5784606933594 212.5098114013672 173.0574035644531 213.7391510009766 C 172.4284973144531 215.222900390625 171.5674743652344 217.2543182373047 170.5053558349609 219.733154296875 C 169.087890625 223.0939788818359 167.8242340087891 225.275146484375 166.4081420898438 226.8053436279297 C 164.5937194824219 228.7658996582031 162.4692687988281 229.7189636230469 159.9133911132812 229.7189636230469 C 157.9856567382812 229.7189636230469 155.7843627929688 229.1607666015625 153.1837768554688 228.0124969482422 L 153.1527709960938 227.9984588623047 C 152.5184631347656 227.7053985595703 149.9549560546875 226.5314025878906 143.6005249023438 223.7294921875 C 142.7166137695312 223.3405609130859 141.7452087402344 223.1430206298828 140.7146606445312 223.1430206298828 C 138.2862091064453 223.1430206298828 135.7515258789062 224.2275848388672 133.9342956542969 226.0442504882812 L 133.89599609375 226.0815277099609 C 133.5780029296875 226.3828735351562 133.1276550292969 226.8212127685547 132.5574645996094 227.3761444091797 C 131.3554992675781 228.5460662841797 129.5402679443359 230.3128356933594 127.1067657470703 232.6030883789062 C 125.1249618530273 234.5536193847656 123.5133285522461 235.8856506347656 122.0359268188477 236.7943420410156 C 120.2690277099609 237.8811187744141 118.6017456054688 238.409423828125 116.938835144043 238.409423828125 C 115.2895278930664 238.409423828125 113.6378021240234 237.8882446289062 111.8893356323242 236.8161163330078 C 110.3876953125 235.8953552246094 108.7733840942383 234.5528869628906 106.8104019165039 232.5923919677734 C 104.7628173828125 230.6374206542969 103.1393432617188 229.0712738037109 101.9530181884766 227.9268951416016 C 101.08203125 227.0866851806641 100.4527130126953 226.4795837402344 100.0329284667969 226.0821838378906 L 100.0061798095703 226.056396484375 C 98.14939880371094 224.2320251464844 95.60670471191406 223.1428375244141 93.20449829101562 223.1428375244141 C 92.18017578125 223.1428375244141 91.21180725097656 223.3404235839844 90.32630920410156 223.7300872802734 L 90.32037353515625 223.7326812744141 C 86.73515319824219 225.2965240478516 83.43424987792969 226.7717437744141 80.77445983886719 227.9989318847656 L 80.74443054199219 228.0124969482422 C 78.12968444824219 229.1670227050781 75.92042541503906 229.728271484375 73.99049377441406 229.728271484375 C 71.43849182128906 229.728271484375 69.31892395019531 228.7765808105469 67.51071166992188 226.8188323974609 C 66.09519958496094 225.2863006591797 64.83451843261719 223.1012878417969 63.42323303222656 219.7340545654297 C 61.47718811035156 215.1923217773438 60.26844787597656 212.3542175292969 59.7281494140625 211.0579833984375 C 58.51271057128906 208.1991882324219 55.46308898925781 205.1214447021484 51.65306091308594 205.1581420898438 C 48.4952392578125 205.2519836425781 45.9727783203125 205.309326171875 44.13008117675781 205.3511810302734 C 42.80746459960938 205.3812408447266 41.85183715820312 205.4029541015625 41.240966796875 205.4246826171875 L 41.2049560546875 205.4256134033203 C 41.01824951171875 205.4288940429688 40.83061218261719 205.4305572509766 40.6473388671875 205.4305572509766 C 35.71336364746094 205.4305572509766 32.5263671875 204.1976470947266 30.61764526367188 201.5504913330078 C 28.66925048828125 198.8482666015625 28.37840270996094 194.9423980712891 28.35430908203125 191.1240234375 L 28.35427856445312 191.1114349365234 C 28.35427856445312 187.9047698974609 28.33209228515625 185.5204925537109 28.31587219238281 183.7795867919922 C 28.30752563476562 182.8857727050781 28.30096435546875 182.1798095703125 28.30096435546875 181.6872100830078 C 28.30096435546875 177.8817749023438 26.178466796875 174.3556823730469 23.1370849609375 173.1045074462891 L 22.2452392578125 172.7607421875 C 17.56169128417969 170.9555053710938 14.72372436523438 169.8616333007812 13.380615234375 169.2965698242188 C 9.1802978515625 167.6448364257812 6.704132080078125 165.6612854003906 5.589401245117188 163.0554962158203 C 4.160446166992188 159.7152709960938 5.154083251953125 155.8848571777344 7.08642578125 151.1614990234375 C 7.994216918945312 148.8923645019531 8.745925903320312 147.0586853027344 9.350143432617188 145.5848083496094 C 9.94183349609375 144.1414642333984 10.36933898925781 143.0986175537109 10.60037231445312 142.4813690185547 L 10.62873840332031 142.4098052978516 C 12.10264587402344 138.8907165527344 11.492919921875 134.8215942382812 9.145950317382812 132.5117340087891 C 8.154342651367188 131.5487060546875 7.28363037109375 130.7024841308594 6.517929077148438 129.9583435058594 C 4.310211181640625 127.812744140625 2.977615356445312 126.5176467895508 2.149459838867188 125.7287445068359 L 2.12261962890625 125.7026824951172 C 0.776458740234375 124.3714294433594 -0.1968536376953125 123.1825866699219 -0.8529205322265625 122.0682754516602 C -1.631881713867188 120.745246887207 -2.006973266601562 119.4721145629883 -1.9996337890625 118.1761474609375 C -1.982452392578125 115.1341018676758 0.2018280029296875 112.609489440918 2.340591430664062 110.5401840209961 C 3.399398803710938 109.4817123413086 5.217361450195312 107.7112274169922 9.138748168945312 103.9028472900391 C 11.87303161621094 101.1587829589844 11.86044311523438 96.96015930175781 10.63299560546875 94.00810241699219 C 10.21595764160156 93.04811096191406 9.453872680664062 91.16122436523438 8.303329467773438 88.31265258789062 C 7.936691284179688 87.40483093261719 7.53192138671875 86.40266418457031 7.089065551757812 85.30854797363281 L 7.08905029296875 85.30856323242188 C 5.157806396484375 80.59124755859375 4.162643432617188 76.76358032226562 5.583404541015625 73.41618347167969 C 6.695404052734375 70.79621887207031 9.177017211914062 68.79286193847656 13.39328002929688 67.11158752441406 L 13.41580200195312 67.10276794433594 C 14.15914916992188 66.81671142578125 15.46255493164062 66.30699157714844 17.26655578613281 65.60148620605469 C 18.83609008789062 64.98770141601562 20.78854370117188 64.22416687011719 23.13301086425781 63.31027221679688 C 26.17658996582031 62.06147766113281 28.30096435546875 58.53388977050781 28.30096435546875 54.72590637207031 C 28.30096435546875 54.25773620605469 28.30740356445312 53.56671142578125 28.31552124023438 52.69183349609375 C 28.33096313476562 51.03483581542969 28.35427856445312 48.53074645996094 28.35427856445312 45.30162048339844 L 28.35430908203125 45.28903198242188 C 28.37825012207031 41.49290466308594 28.66502380371094 37.60861206054688 30.58493041992188 34.91389465332031 C 32.47200012207031 32.26527404785156 35.61799621582031 31.0316162109375 40.48561096191406 31.03143310546875 C 40.71653747558594 31.03143310546875 40.95463562011719 31.03416442871094 41.1937255859375 31.03956604003906 C 42.08460998535156 31.04020690917969 43.64730834960938 31.07644653320312 45.80274963378906 31.12643432617188 C 47.388427734375 31.16317749023438 49.36186218261719 31.20896911621094 51.65086364746094 31.25405883789062 L 51.65980529785156 31.2542724609375 C 51.71476745605469 31.25558471679688 51.77005004882812 31.25627136230469 51.82476806640625 31.25627136230469 C 55.02236938476562 31.25627136230469 58.27142333984375 28.83149719238281 59.72590637207031 25.359619140625 L 59.73661804199219 25.33448791503906 C 59.97346496582031 24.79011535644531 60.350341796875 23.90095520019531 60.87196350097656 22.67027282714844 C 61.50064086914062 21.18705749511719 62.36135864257812 19.15635681152344 63.4228515625 16.67901611328125 C 64.83616638183594 13.32797241210938 66.09535217285156 11.1524658203125 67.50558471679688 9.62518310546875 C 69.31480407714844 7.66583251953125 71.43124389648438 6.713211059570312 73.97590637207031 6.712936401367188 C 75.91079711914062 6.71270751953125 78.12184143066406 7.280792236328125 80.73446655273438 8.449417114257812 C 81.55577087402344 8.79736328125 82.98551940917969 9.431396484375 84.95867919921875 10.30642700195312 C 86.41162109375 10.95074462890625 88.21986389160156 11.75262451171875 90.32681274414062 12.68049621582031 C 91.22874450683594 13.077392578125 92.21795654296875 13.27874755859375 93.26643371582031 13.27874755859375 C 95.68849182128906 13.27874755859375 98.203369140625 12.20989990234375 99.99371337890625 10.41961669921875 C 101.2208557128906 9.192474365234375 103.7068939208984 6.784530639648438 106.8157958984375 3.8118896484375 C 108.7963333129883 1.862136840820312 110.4066696166992 0.5289764404296875 111.8825531005859 -0.382843017578125 C 113.643928527832 -1.471038818359375 115.2978668212891 -2 116.938835144043 -2 Z" stroke="none" fill="#ebf0f2"/>
      </g>
      <path id="Path_134" data-name="Path 134" d="M119.391,30.764A89.821,89.821,0,1,1,29.6,120.612a89.821,89.821,0,0,1,89.795-89.848" transform="translate(0.602 -2.492)" fill="#fff" fill-rule="evenodd"/>
      <path id="Path_135" data-name="Path 135" d="M122.061,63.8a59.515,59.515,0,1,1-59.488,59.541A59.514,59.514,0,0,1,122.061,63.8Z" transform="translate(-2.069 -5.168)" fill="#ff9134" fill-rule="evenodd"/>
      <path id="Path_137" data-name="Path 137" d="M86.968,89.773l15.383-3.548a4.8,4.8,0,0,1,5.462,2.766l7.1,16.557a4.749,4.749,0,0,1-1.367,5.567l-8.212,6.721a53.363,53.363,0,0,0,24.342,24.343l6.728-8.2a4.771,4.771,0,0,1,5.562-1.37l16.559,7.1a4.789,4.789,0,0,1,2.766,5.465l-3.549,15.383a4.74,4.74,0,0,1-4.645,3.7A69.9,69.9,0,0,1,83.27,94.435a4.761,4.761,0,0,1,3.7-4.662M153.1,161.8a2.32,2.32,0,0,0,2.27-1.8l3.549-15.383a2.359,2.359,0,0,0-1.365-2.683l-16.559-7.1a2.332,2.332,0,0,0-2.708.672l-7.936,9.7c-20.375-9.51-26.966-25.748-28.05-28.053l9.694-7.936a2.312,2.312,0,0,0,.668-2.709l-7.1-16.559A2.341,2.341,0,0,0,102.9,88.6L87.512,92.144a2.34,2.34,0,0,0-1.8,2.28A67.544,67.544,0,0,0,153.1,161.8" transform="translate(-2.321 -7.087)" fill="#fff"/>
    </g>
  </g>
  <text id="K" transform="matrix(-0.005, -1, 1, -0.005, 52.04, 123.768)" fill="#3f7180" font-size="15" font-family="SegoeUI, Segoe UI"><tspan x="0" y="0">K</tspan></text>
  <text id="o" transform="translate(52.005 113.143) rotate(-81.694)" fill="#3f7180" font-size="15" font-family="SegoeUI, Segoe UI"><tspan x="0" y="0">o</tspan></text>
  <text id="s" transform="matrix(0.276, -0.961, 0.961, 0.276, 53.428, 103.562)" fill="#3f7180" font-size="15" font-family="SegoeUI, Segoe UI"><tspan x="0" y="0">s</tspan></text>
  <text id="t" transform="translate(55.82 95.407) rotate(-67.82)" fill="#3f7180" font-size="15" font-family="SegoeUI, Segoe UI"><tspan x="0" y="0">t</tspan></text>
  <text id="e" transform="matrix(0.48, -0.877, 0.877, 0.48, 58.031, 89.705)" fill="#3f7180" font-size="15" font-family="SegoeUI, Segoe UI"><tspan x="0" y="0">e</tspan></text>
  <text id="n" transform="matrix(0.601, -0.799, 0.799, 0.601, 62.487, 81.463)" fill="#3f7180" font-size="15" font-family="SegoeUI, Segoe UI"><tspan x="0" y="0">n</tspan></text>
  <text id="l" transform="matrix(0.683, -0.73, 0.73, 0.683, 68.793, 73.315)" fill="#3f7180" font-size="15" font-family="SegoeUI, Segoe UI"><tspan x="0" y="0">l</tspan></text>
  <text id="o-2" data-name="o" transform="translate(71.699 69.99) rotate(-40.992)" fill="#3f7180" font-size="15" font-family="SegoeUI, Segoe UI"><tspan x="0" y="0">o</tspan></text>
  <text id="s-2" data-name="s" transform="translate(79.019 63.658) rotate(-33.368)" fill="#3f7180" font-size="15" font-family="SegoeUI, Segoe UI"><tspan x="0" y="0">s</tspan></text>
  <text id="e-2" data-name="e" transform="matrix(0.9, -0.435, 0.435, 0.9, 86.077, 58.953)" fill="#3f7180" font-size="15" font-family="SegoeUI, Segoe UI"><tspan x="0" y="0">e</tspan></text>
  <text id="r" transform="matrix(0.945, -0.327, 0.327, 0.945, 94.55, 54.937)" fill="#3f7180" font-size="15" font-family="SegoeUI, Segoe UI"><tspan x="0" y="0">r</tspan></text>
  <text id="_" data-name=" " transform="translate(97.771 52.843) rotate(-14.97)" fill="#3f7180" font-size="15" font-family="SegoeUI, Segoe UI"><tspan x="0" y="0"> </tspan></text>
  <text id="T-2" data-name="T" transform="matrix(0.985, -0.171, 0.171, 0.985, 103.748, 51.901)" fill="#3f7180" font-size="15" font-family="SegoeUI, Segoe UI"><tspan x="0" y="0">T</tspan></text>
  <text id="e-3" data-name="e" transform="translate(112.604 50.331) rotate(-2.252)" fill="#3f7180" font-size="15" font-family="SegoeUI, Segoe UI"><tspan x="0" y="0">e</tspan></text>
  <text id="l-2" data-name="l" transform="matrix(0.998, 0.062, -0.062, 0.998, 122.016, 50.077)" fill="#3f7180" font-size="15" font-family="SegoeUI, Segoe UI"><tspan x="0" y="0">l</tspan></text>
  <text id="e-4" data-name="e" transform="matrix(0.987, 0.163, -0.163, 0.987, 126.419, 50.212)" fill="#3f7180" font-size="15" font-family="SegoeUI, Segoe UI"><tspan x="0" y="0">e</tspan></text>
  <text id="f" transform="translate(135.686 51.846) rotate(15.687)" fill="#3f7180" font-size="15" font-family="SegoeUI, Segoe UI"><tspan x="0" y="0">f</tspan></text>
  <text id="o-3" data-name="o" transform="matrix(0.927, 0.376, -0.376, 0.927, 140.936, 53.182)" fill="#3f7180" font-size="15" font-family="SegoeUI, Segoe UI"><tspan x="0" y="0">o</tspan></text>
  <text id="n-2" data-name="n" transform="matrix(0.862, 0.507, -0.507, 0.862, 149.914, 56.782)" fill="#3f7180" font-size="15" font-family="SegoeUI, Segoe UI"><tspan x="0" y="0">n</tspan></text>
  <text id="_-" data-name="-" transform="translate(158.743 62.014) rotate(38.442)" fill="#3f7180" font-size="15" font-family="SegoeUI, Segoe UI"><tspan x="0" y="0">-</tspan></text>
  <text id="S-3" data-name="S" transform="translate(165.654 67.453) rotate(46.026)" fill="#3f7180" font-size="15" font-family="SegoeUI, Segoe UI"><tspan x="0" y="0">S</tspan></text>
  <text id="u" transform="translate(172.189 74.153) rotate(54.268)" fill="#3f7180" font-size="15" font-family="SegoeUI, Segoe UI"><tspan x="0" y="0">u</tspan></text>
  <text id="p" transform="translate(178.179 82.435) rotate(62.933)" fill="#3f7180" font-size="15" font-family="SegoeUI, Segoe UI"><tspan x="0" y="0">p</tspan></text>
  <text id="p-2" data-name="p" transform="matrix(0.314, 0.949, -0.949, 0.314, 182.899, 91.625)" fill="#3f7180" font-size="15" font-family="SegoeUI, Segoe UI"><tspan x="0" y="0">p</tspan></text>
  <text id="o-4" data-name="o" transform="matrix(0.172, 0.985, -0.985, 0.172, 186.142, 101.443)" fill="#3f7180" font-size="15" font-family="SegoeUI, Segoe UI"><tspan x="0" y="0">o</tspan></text>
  <text id="r-2" data-name="r" transform="translate(187.729 111.008) rotate(86.796)" fill="#3f7180" font-size="15" font-family="SegoeUI, Segoe UI"><tspan x="0" y="0">r</tspan></text>
  <text id="t-3" data-name="t" transform="matrix(-0.037, 0.999, -0.999, -0.037, 188.094, 117.514)" fill="#3f7180" font-size="15" font-family="SegoeUI, Segoe UI"><tspan x="0" y="0">t</tspan></text>
  <text id="b" transform="matrix(0.549, 0.836, -0.836, 0.549, 49.717, 155.103)" fill="#3f7180" font-size="18" font-family="SegoeUI, Segoe UI"><tspan x="0" y="0">b</tspan></text>
  <text id="e-5" data-name="e" transform="translate(57.902 167.214) rotate(46.736)" fill="#3f7180" font-size="18" font-family="SegoeUI, Segoe UI"><tspan x="0" y="0">e</tspan></text>
  <text id="i" transform="translate(66.913 176.412) rotate(39.711)" fill="#3f7180" font-size="18" font-family="SegoeUI, Segoe UI"><tspan x="0" y="0">i</tspan></text>
  <text id="_2" data-name=" " transform="matrix(0.811, 0.585, -0.585, 0.811, 67.939, 178.758)" fill="#3f7180" font-size="16" font-family="SegoeUI, Segoe UI"><tspan x="0" y="0"> </tspan></text>
  <text id="E-6" data-name="E" transform="translate(75.763 183.396) rotate(30.02)" fill="#3f7180" font-size="18" font-family="SegoeUI, Segoe UI"><tspan x="0" y="0">E</tspan></text>
  <text id="i-2" data-name="i" transform="translate(85.695 188.916) rotate(23.623)" fill="#3f7180" font-size="18" font-family="SegoeUI, Segoe UI"><tspan x="0" y="0">i</tspan></text>
  <text id="n-3" data-name="n" transform="matrix(0.96, 0.279, -0.279, 0.96, 91.948, 191.815)" fill="#3f7180" font-size="18" font-family="SegoeUI, Segoe UI"><tspan x="0" y="0">n</tspan></text>
  <text id="r-3" data-name="r" transform="translate(105.679 195.522) rotate(7.801)" fill="#3f7180" font-size="18" font-family="SegoeUI, Segoe UI"><tspan x="0" y="0">r</tspan></text>
  <text id="i-3" data-name="i" transform="matrix(0.999, 0.039, -0.039, 0.999, 114.678, 196.648)" fill="#3f7180" font-size="18" font-family="SegoeUI, Segoe UI"><tspan x="0" y="0">i</tspan></text>
  <text id="c" transform="translate(121.457 197.024) rotate(-4.678)" fill="#3f7180" font-size="18" font-family="SegoeUI, Segoe UI"><tspan x="0" y="0">c</tspan></text>
  <text id="h" transform="translate(134.603 195.859) rotate(-14.569)" fill="#3f7180" font-size="18" font-family="SegoeUI, Segoe UI"><tspan x="0" y="0">h</tspan></text>
  <text id="t-4" data-name="t" transform="matrix(0.921, -0.388, 0.388, 0.921, 148.279, 192.01)" fill="#3f7180" font-size="18" font-family="SegoeUI, Segoe UI"><tspan x="0" y="0">t</tspan></text>
  <text id="u-2" data-name="u" transform="translate(156.711 188.545) rotate(-31.038)" fill="#3f7180" font-size="18" font-family="SegoeUI, Segoe UI"><tspan x="0" y="0">u</tspan></text>
  <text id="n-4" data-name="n" transform="translate(169.118 180.9) rotate(-41.392)" fill="#3f7180" font-size="18" font-family="SegoeUI, Segoe UI"><tspan x="0" y="0">n</tspan></text>
  <text id="g" transform="translate(179.962 171.132) rotate(-51.843)" fill="#3f7180" font-size="18" font-family="SegoeUI, Segoe UI"><tspan x="0" y="0">g</tspan></text>
  <text id="_3" data-name="!" transform="matrix(0.499, -0.867, 0.867, 0.499, 188.569, 159.697)" fill="#3f7180" font-size="18" font-family="SegoeUI, Segoe UI"><tspan x="0" y="0">!</tspan></text>
</svg>
