<svg xmlns="http://www.w3.org/2000/svg" xmlns:xlink="http://www.w3.org/1999/xlink" width="160" height="52.381" viewBox="0 0 160 52.381">
  <defs>
    <clipPath id="clip-path">
      <rect id="Rectangle_123" data-name="Rectangle 123" width="160" height="52.381" transform="translate(0 0)" fill="none"/>
    </clipPath>
  </defs>
  <g id="Group_326" data-name="Group 326" clip-path="url(#clip-path)">
    <path id="Path_170" data-name="Path 170" d="M78.483.657c-6.931.719-10.936,2.793-13.547,6.928s-3.158,12.433-.581,17.609c3.752,7.489,17.539,11.276,27.081,6.347C96.528,28.9,99.18,23.886,99.221,17.4,99.283,6.161,90.349-.569,78.483.657M90.855,23.174c-3.917,8.12-16.869,5.826-19.87-.3-3.958-8.065.718-16.937,9.248-17.3C89.447,5.168,95.031,14.52,90.855,23.174Z" transform="translate(-37.854 -0.321)" fill="#fff" fill-rule="evenodd"/>
    <path id="Path_171" data-name="Path 171" d="M188.36,4.083c-4-4.17-15.516-2.1-23.329-2.595a304.6,304.6,0,0,1,.288,32.027h6.924c0-9.147-.492-17.8-.3-27.125,6.589-.418,12.768-.246,11.517,5.778-.683,3.354-5.051,4.477-9.508,3.745,2.665,6.093,6.446,11.057,8.66,17.6h7.771c-2.433-5.272-5.953-9.434-8.346-14.72,8.162-.355,10.738-10.139,6.323-14.712" transform="translate(-99.672 -0.858)" fill="#fff" fill-rule="evenodd"/>
    <path id="Path_172" data-name="Path 172" d="M13.828,15.641c-2.051-1.664-6.4-4.518-6.049-7.531.554-4.662,8.114-2.9,11.819-1.739C19.064,4.8,19.248,2.5,18.729.894,9.5-1.468-1.476.593.581,10.157c1.312,6.162,13.869,9.585,12.987,15.295-.82,4.95-9.891,2.471-13.568.87a31.271,31.271,0,0,1,.581,5.772c9.74,3.006,22.946.9,19.87-9.53-.842-2.842-4.1-4.889-6.623-6.922" transform="translate(0 -0.011)" fill="#fff" fill-rule="evenodd"/>
    <path id="Path_173" data-name="Path 173" d="M264.33,28.456a91.363,91.363,0,0,1-16.138,0V20.083a129.6,129.6,0,0,1,14.122,0V14.894c-4.511-.2-9.8.376-13.834-.288V6.519c5.222.171,11.1-.335,15.851.281V1.618H240.987c.526,10.167.376,21.827,0,32.027H264.33Z" transform="translate(-145.547 -0.989)" fill="#fff" fill-rule="evenodd"/>
    <path id="Path_174" data-name="Path 174" d="M318.768,16.866,308.242,1.619H315.9l6.835,10.516,6.766-10.516h7.621L326.7,17l11.62,16.766h-7.724L322.48,21.446l-7.813,12.323h-7.56Z" transform="translate(-185.481 -0.989)" fill="#ff9234"/>
    <path id="Path_175" data-name="Path 175" d="M389.9,1.758a3.464,3.464,0,1,1-1.339.255,3.464,3.464,0,0,1,1.339-.255m0,.582a2.851,2.851,0,0,0-2.843,2.86c0,.014,0,.029,0,.043a2.844,2.844,0,1,0,2.88-2.9H389.9Zm.163.918c.615,0,1.409.24,1.409,1.1a.974.974,0,0,1-.684.952c.355.13.554.356.588.9a2.916,2.916,0,0,0,.123.972h-.766a4.1,4.1,0,0,1-.13-.924c0-.3-.082-.685-.814-.685h-.575V7.188h-.792V3.264Zm-.848.554V5.078h.684c.225,0,.828,0,.828-.684s-.561-.582-.794-.582Z" transform="translate(-233.371 -1.073)" fill="#fff"/>
    <path id="Path_176" data-name="Path 176" d="M4.069,117.979,1,108.935h2.5L5.2,114.555l1.777-5.621H9.093l1.764,5.635,1.723-5.634h2.488L12,117.979H9.715L8.047,112.3l-1.7,5.676Z" transform="translate(-0.604 -65.804)" fill="#fff"/>
    <path id="Path_177" data-name="Path 177" d="M41.1,101.634a1.4,1.4,0,0,1-1.408-1.395v0a1.317,1.317,0,0,1,.41-.952,1.364,1.364,0,0,1,.984-.411,1.3,1.3,0,0,1,.964.411,1.33,1.33,0,0,1,.4.952,1.37,1.37,0,0,1-.4.986,1.3,1.3,0,0,1-.95.411m-1.284,1.225h2.542V111.9H39.819Z" transform="translate(-23.974 -59.728)" fill="#fff"/>
    <path id="Path_178" data-name="Path 178" d="M54.562,110.332a3.342,3.342,0,0,1,3.083-1.882v2.143a3.254,3.254,0,0,0-2.248.787,2.6,2.6,0,0,0-.834,2.053v4.314H52.019v-9.106h2.543Z" transform="translate(-31.417 -65.51)" fill="#fff"/>
    <path id="Path_179" data-name="Path 179" d="M73.394,115.592a3.086,3.086,0,0,0,1.122-.226,2.793,2.793,0,0,0,.95-.575l1.62,1.657a4.1,4.1,0,0,1-1.627,1.048,5.78,5.78,0,0,1-2.05.383,4.657,4.657,0,0,1-3.418-1.37,4.928,4.928,0,0,1-.048-6.764,4.485,4.485,0,0,1,3.315-1.369,3.962,3.962,0,0,1,3.295,1.492,6.374,6.374,0,0,1,1.183,4.06H71.247a2.322,2.322,0,0,0,.793,1.191,2.09,2.09,0,0,0,1.354.472m0-4.936a2.209,2.209,0,0,0-1.278.39,2.186,2.186,0,0,0-.814,1.075h4.027a1.818,1.818,0,0,0-1.955-1.472Z" transform="translate(-41.445 -65.463)" fill="#fff"/>
    <rect id="Rectangle_121" data-name="Rectangle 121" width="2.543" height="12.207" transform="translate(38.031 39.968)" fill="#fff"/>
    <path id="Path_180" data-name="Path 180" d="M111.5,115.591a3.12,3.12,0,0,0,1.128-.226,2.931,2.931,0,0,0,.95-.575l1.62,1.657a4.142,4.142,0,0,1-1.633,1.048,5.762,5.762,0,0,1-2.05.383,4.677,4.677,0,0,1-3.418-1.369,4.92,4.92,0,0,1-.041-6.764,4.459,4.459,0,0,1,3.309-1.369,3.947,3.947,0,0,1,3.294,1.492,6.334,6.334,0,0,1,1.19,4.06h-6.495a2.323,2.323,0,0,0,.793,1.191,2.118,2.118,0,0,0,1.354.472m0-4.936a2.206,2.206,0,0,0-1.278.39,2.131,2.131,0,0,0-.807,1.075h4.026a1.826,1.826,0,0,0-1.962-1.472Z" transform="translate(-64.46 -65.463)" fill="#fff"/>
    <path id="Path_181" data-name="Path 181" d="M136.489,117.887a6.236,6.236,0,0,1-4.06-1.369l1.094-1.719a5.113,5.113,0,0,0,3.014,1.013,1.713,1.713,0,0,0,.861-.226.569.569,0,0,0,.328-.493.61.61,0,0,0-.362-.568,7.885,7.885,0,0,0-1.244-.411,12.635,12.635,0,0,1-1.306-.377,5.653,5.653,0,0,1-1-.493,1.977,1.977,0,0,1-.739-.767,2.332,2.332,0,0,1-.246-1.1,2.575,2.575,0,0,1,.957-2.109,3.863,3.863,0,0,1,2.564-.821,6.269,6.269,0,0,1,3.554,1.116l-1.025,1.814a4.844,4.844,0,0,0-2.53-.8,1.66,1.66,0,0,0-.766.15.432.432,0,0,0-.294.39.568.568,0,0,0,.3.52,6.318,6.318,0,0,0,1.284.438c.486.13.882.247,1.183.356a6.682,6.682,0,0,1,1.006.493,2.136,2.136,0,0,1,.82.835,2.8,2.8,0,0,1-.731,3.334,4.144,4.144,0,0,1-2.659.794" transform="translate(-79.982 -65.506)" fill="#fff"/>
    <path id="Path_182" data-name="Path 182" d="M158.581,117.887a6.233,6.233,0,0,1-4.06-1.37l1.093-1.718a5.114,5.114,0,0,0,3.015,1.013,1.7,1.7,0,0,0,.84-.192.568.568,0,0,0,.328-.493.609.609,0,0,0-.362-.568,7.9,7.9,0,0,0-1.223-.445,12.685,12.685,0,0,1-1.32-.37,5.68,5.68,0,0,1-1-.493,1.976,1.976,0,0,1-.738-.767,2.335,2.335,0,0,1-.233-1.109,2.575,2.575,0,0,1,.964-2.109,3.835,3.835,0,0,1,2.556-.821A6.3,6.3,0,0,1,162,109.562l-1,1.814a4.839,4.839,0,0,0-2.529-.8,1.656,1.656,0,0,0-.766.15.431.431,0,0,0-.294.39.568.568,0,0,0,.3.52,6.35,6.35,0,0,0,1.237.425c.485.13.882.246,1.183.356a6.728,6.728,0,0,1,1,.493,2.139,2.139,0,0,1,.819.834,2.8,2.8,0,0,1-.731,3.334,4.142,4.142,0,0,1-2.638.809" transform="translate(-93.325 -65.506)" fill="#fff"/>
    <path id="Path_183" data-name="Path 183" d="M225.595,116.49a4.78,4.78,0,0,1-3.418,1.4,4.836,4.836,0,0,1-3.486-1.4,4.509,4.509,0,0,1-.269-6.371q.129-.141.269-.27a4.991,4.991,0,0,1,6.924,0,4.529,4.529,0,0,1,.24,6.4q-.115.124-.24.239Zm-5.2-1.513a2.356,2.356,0,0,0,1.75.774,2.317,2.317,0,0,0,1.743-.774,2.591,2.591,0,0,0,0-3.622,2.329,2.329,0,0,0-1.743-.76,2.363,2.363,0,0,0-1.75.787,2.591,2.591,0,0,0,0,3.621Z" transform="translate(-131.2 -65.513)" fill="#fff"/>
    <rect id="Rectangle_122" data-name="Rectangle 122" width="2.55" height="12.207" transform="translate(97.566 39.968)" fill="#fff"/>
    <path id="Path_184" data-name="Path 184" d="M264.272,108.935h2.543v9.044h-2.543v-1.137a2.737,2.737,0,0,1-1.122.993,3.563,3.563,0,0,1-1.6.355,3.2,3.2,0,0,1-2.372-.979,3.515,3.515,0,0,1-.937-2.52v-5.757H260.7v5.2a1.956,1.956,0,0,0,.472,1.37,1.586,1.586,0,0,0,1.237.527,1.914,1.914,0,0,0,1.367-.507,1.658,1.658,0,0,0,.54-1.239v.048Z" transform="translate(-155.967 -65.804)" fill="#fff"/>
    <path id="Path_185" data-name="Path 185" d="M289.16,111.982l.608,1.664a3,3,0,0,1-2.05.781,2.617,2.617,0,0,1-1.948-.767,2.742,2.742,0,0,1-.759-1.992V107.23h-1.238v-2.053h1.237v-2.465h2.44v2.465h1.955v2.053H287.45v4.04a1.082,1.082,0,0,0,.246.726.77.77,0,0,0,.608.288,1.185,1.185,0,0,0,.855-.3" transform="translate(-171.388 -62.045)" fill="#fff"/>
    <path id="Path_186" data-name="Path 186" d="M304,101.634a1.324,1.324,0,0,1-.991-.411,1.37,1.37,0,0,1-.4-.986,1.315,1.315,0,0,1,.41-.952,1.364,1.364,0,0,1,.984-.411,1.306,1.306,0,0,1,.964.411,1.328,1.328,0,0,1,.4.952,1.371,1.371,0,0,1-.4.986,1.306,1.306,0,0,1-.964.411m-1.284,1.225h2.543V111.9h-2.543Z" transform="translate(-182.76 -59.728)" fill="#fff"/>
    <path id="Path_187" data-name="Path 187" d="M322.052,116.49a4.778,4.778,0,0,1-3.451,1.4,4.833,4.833,0,0,1-3.465-1.4,4.509,4.509,0,0,1-.269-6.371q.129-.141.269-.27a4.991,4.991,0,0,1,6.924,0,4.531,4.531,0,0,1,.237,6.4c-.076.082-.155.161-.237.237Zm-5.2-1.513a2.358,2.358,0,0,0,1.75.774,2.315,2.315,0,0,0,1.743-.774,2.591,2.591,0,0,0,0-3.622,2.328,2.328,0,0,0-1.743-.76,2.364,2.364,0,0,0-1.77.787,2.591,2.591,0,0,0,0,3.621Z" transform="translate(-189.448 -65.513)" fill="#fff"/>
    <path id="Path_188" data-name="Path 188" d="M347.9,108.449a3.171,3.171,0,0,1,2.406.979,3.482,3.482,0,0,1,.937,2.512v5.744h-2.454v-5.2a1.959,1.959,0,0,0-.472-1.369,1.585,1.585,0,0,0-1.238-.527,1.882,1.882,0,0,0-1.367.507,1.637,1.637,0,0,0-.408.561,1.66,1.66,0,0,0-.14.678v5.347h-2.541v-9.037h2.542v1.137a2.738,2.738,0,0,1,1.122-.986,3.567,3.567,0,0,1,1.613-.343" transform="translate(-206.933 -65.509)" fill="#fff"/>
    <path id="Path_189" data-name="Path 189" d="M372.16,117.875a6.233,6.233,0,0,1-4.059-1.369l1.093-1.76a5.114,5.114,0,0,0,3.014,1.013,1.7,1.7,0,0,0,.841-.192.565.565,0,0,0,.233-.2.58.58,0,0,0,.1-.293.611.611,0,0,0-.363-.568,7.943,7.943,0,0,0-1.223-.4,12.559,12.559,0,0,1-1.305-.376,5.665,5.665,0,0,1-1.006-.493,1.985,1.985,0,0,1-.737-.767,2.331,2.331,0,0,1-.246-1.109,2.569,2.569,0,0,1,.964-2.109,3.835,3.835,0,0,1,2.556-.821,6.3,6.3,0,0,1,3.56,1.116l-1.031,1.821a4.842,4.842,0,0,0-2.529-.8,1.667,1.667,0,0,0-.766.15.432.432,0,0,0-.294.391.57.57,0,0,0,.3.521,6.38,6.38,0,0,0,1.286.438c.484.13.881.246,1.183.356a6.686,6.686,0,0,1,1,.493,2.13,2.13,0,0,1,.82.835,2.794,2.794,0,0,1-.731,3.334,4.144,4.144,0,0,1-2.66.794" transform="translate(-222.318 -65.494)" fill="#fff"/>
    <path id="Path_190" data-name="Path 190" d="M199.087,117.894a6.233,6.233,0,0,1-4.059-1.369l1.093-1.76a5.114,5.114,0,0,0,3.014,1.013,1.7,1.7,0,0,0,.841-.192.565.565,0,0,0,.233-.2.58.58,0,0,0,.1-.293.611.611,0,0,0-.363-.568,7.944,7.944,0,0,0-1.223-.4,12.558,12.558,0,0,1-1.305-.376,5.664,5.664,0,0,1-1.006-.493,1.985,1.985,0,0,1-.737-.767,2.331,2.331,0,0,1-.246-1.109,2.569,2.569,0,0,1,.964-2.109,3.835,3.835,0,0,1,2.556-.821,6.3,6.3,0,0,1,3.56,1.116l-1.031,1.821a4.842,4.842,0,0,0-2.529-.8,1.667,1.667,0,0,0-.766.15.432.432,0,0,0-.294.39.57.57,0,0,0,.3.521,6.381,6.381,0,0,0,1.286.438c.484.13.881.246,1.183.356a6.686,6.686,0,0,1,1,.493,2.13,2.13,0,0,1,.82.835,2.794,2.794,0,0,1-.731,3.334,4.144,4.144,0,0,1-2.66.794" transform="translate(-117.789 -65.506)" fill="#fff"/>
  </g>
</svg>
